<svg xmlns="http://www.w3.org/2000/svg" xmlns:xlink="http://www.w3.org/1999/xlink" width="200" zoomAndPan="magnify" viewBox="0 0 150 37.5" height="50" preserveAspectRatio="xMidYMid meet" version="1.0"><defs><filter x="0%" y="0%" width="100%" height="100%" id="a1433292ba"><feColorMatrix values="0 0 0 0 1 0 0 0 0 1 0 0 0 0 1 0 0 0 1 0" color-interpolation-filters="sRGB"/></filter><clipPath id="64c4b690a8"><path d="M 0.988281 2 L 149.011719 2 L 149.011719 34 L 0.988281 34 Z M 0.988281 2 " clip-rule="nonzero"/></clipPath><mask id="58232355ec"><g filter="url(#a1433292ba)"><rect x="-15" width="180" fill="#000000" y="-3.75" height="45" fill-opacity="0.41"/></g></mask><clipPath id="72f844fac3"><path d="M 0.988281 0.886719 L 149.011719 0.886719 L 149.011719 31.304688 L 0.988281 31.304688 Z M 0.988281 0.886719 " clip-rule="nonzero"/></clipPath><clipPath id="ab3bf34282"><path d="M 149.011719 0.886719 L 0.988281 0.886719 L 13.066406 16.097656 L 0.988281 31.304688 L 149.011719 31.304688 L 136.933594 16.097656 Z M 149.011719 0.886719 " clip-rule="nonzero"/></clipPath><clipPath id="9884fa33ea"><rect x="0" width="150" y="0" height="32"/></clipPath><clipPath id="be89233fc0"><path d="M 114 4 L 133 4 L 133 30 L 114 30 Z M 114 4 " clip-rule="nonzero"/></clipPath><clipPath id="540d2e2509"><path d="M 110.210938 6.808594 L 129.332031 2.878906 L 134.402344 27.546875 L 115.285156 31.480469 Z M 110.210938 6.808594 " clip-rule="nonzero"/></clipPath><clipPath id="ef38f39bb0"><path d="M 110.210938 6.808594 L 129.332031 2.878906 L 134.402344 27.546875 L 115.285156 31.480469 Z M 110.210938 6.808594 " clip-rule="nonzero"/></clipPath><clipPath id="3436366426"><path d="M 92 7.792969 L 125.410156 7.792969 L 125.410156 32.347656 L 92 32.347656 Z M 92 7.792969 " clip-rule="nonzero"/></clipPath></defs><g clip-path="url(#64c4b690a8)"><g mask="url(#58232355ec)"><g transform="matrix(1, 0, 0, 1, 0.000000000000000222, 2)"><g clip-path="url(#9884fa33ea)"><g clip-path="url(#72f844fac3)"><g clip-path="url(#ab3bf34282)"><path fill="#ffffff" d="M 0.988281 0.886719 L 149.042969 0.886719 L 149.042969 31.304688 L 0.988281 31.304688 Z M 0.988281 0.886719 " fill-opacity="1" fill-rule="nonzero"/></g></g></g></g></g></g><g clip-path="url(#be89233fc0)"><g clip-path="url(#540d2e2509)"><g clip-path="url(#ef38f39bb0)"><path fill="#ffffff" d="M 125.839844 22.941406 C 125.660156 23.675781 125.183594 24.324219 124.5625 24.746094 C 123.976562 25.148438 122.96875 25.527344 122.386719 24.917969 C 121.765625 24.257812 122.078125 23.246094 122.554688 22.597656 C 122.820312 22.238281 123.171875 21.9375 123.570312 21.722656 C 124.140625 21.410156 125.148438 21.15625 125.667969 21.726562 C 125.964844 22.0625 125.949219 22.535156 125.839844 22.941406 Z M 130.375 10.167969 C 130.335938 10.371094 130.203125 10.554688 130.027344 10.660156 C 129.980469 10.53125 129.902344 10.414062 129.804688 10.320312 C 129.761719 10.285156 129.695312 10.273438 129.652344 10.3125 C 129.613281 10.347656 129.601562 10.425781 129.644531 10.464844 C 129.816406 10.625 129.90625 10.851562 129.867188 11.082031 C 129.832031 11.292969 129.691406 11.480469 129.503906 11.578125 C 129.308594 11.675781 129.050781 11.664062 128.875 11.527344 C 128.71875 11.410156 128.597656 11.15625 128.695312 10.96875 C 128.757812 10.863281 128.902344 10.828125 129.011719 10.851562 C 129.078125 10.863281 129.1875 10.953125 129.117188 11.027344 C 129.023438 11.125 129.164062 11.285156 129.265625 11.183594 C 129.371094 11.070312 129.371094 10.902344 129.285156 10.777344 C 129.1875 10.648438 129.007812 10.617188 128.855469 10.644531 C 128.6875 10.667969 128.535156 10.773438 128.480469 10.945312 C 128.46875 10.980469 128.460938 11.015625 128.457031 11.058594 C 128.179688 11.191406 127.851562 11.011719 127.765625 10.71875 C 127.675781 10.378906 127.863281 10.042969 128.15625 9.878906 C 128.285156 9.808594 128.4375 9.757812 128.585938 9.78125 C 128.648438 9.789062 128.757812 9.808594 128.769531 9.867188 C 128.777344 9.902344 128.757812 9.957031 128.753906 9.992188 C 128.757812 10.035156 128.761719 10.078125 128.769531 10.121094 C 128.796875 10.253906 129.007812 10.210938 128.980469 10.078125 C 128.9375 9.878906 129.035156 9.6875 129.1875 9.558594 C 129.339844 9.429688 129.566406 9.324219 129.769531 9.335938 C 130.179688 9.355469 130.441406 9.789062 130.375 10.167969 Z M 119.554688 9.144531 C 119.40625 9.300781 119.191406 9.398438 118.976562 9.390625 C 118.761719 9.382812 118.558594 9.25 118.535156 9.019531 C 118.53125 9.015625 118.53125 9.003906 118.523438 8.996094 C 118.644531 8.867188 118.71875 8.695312 118.6875 8.507812 C 118.660156 8.375 118.457031 8.417969 118.476562 8.550781 C 118.515625 8.765625 118.308594 8.933594 118.136719 9.011719 C 117.941406 9.097656 117.71875 9.097656 117.523438 9.023438 C 117.125 8.867188 116.929688 8.347656 117.160156 7.976562 C 117.285156 7.773438 117.507812 7.636719 117.753906 7.625 C 117.753906 7.625 117.757812 7.625 117.757812 7.625 C 117.742188 7.789062 117.785156 7.957031 117.90625 8.082031 C 118 8.179688 118.152344 8.035156 118.058594 7.9375 C 117.898438 7.769531 117.972656 7.511719 118.132812 7.371094 C 118.308594 7.207031 118.574219 7.128906 118.804688 7.214844 C 119.003906 7.289062 119.160156 7.46875 119.175781 7.683594 C 119.199219 7.867188 119.070312 8.078125 118.863281 8.074219 C 118.765625 8.078125 118.683594 8.019531 118.644531 7.9375 C 118.628906 7.894531 118.621094 7.855469 118.625 7.8125 C 118.636719 7.78125 118.667969 7.71875 118.699219 7.722656 C 118.753906 7.734375 118.8125 7.71875 118.832031 7.65625 C 118.847656 7.605469 118.820312 7.53125 118.765625 7.519531 C 118.585938 7.484375 118.445312 7.613281 118.417969 7.789062 C 118.394531 7.925781 118.453125 8.078125 118.558594 8.171875 C 118.773438 8.367188 119.097656 8.296875 119.269531 8.082031 C 119.460938 8.175781 119.652344 8.347656 119.707031 8.5625 C 119.757812 8.769531 119.699219 8.988281 119.554688 9.144531 Z M 119.878906 8.410156 C 119.792969 8.183594 119.582031 8.007812 119.363281 7.898438 C 119.449219 7.613281 119.316406 7.296875 119.078125 7.121094 C 118.800781 6.910156 118.40625 6.921875 118.117188 7.113281 C 117.996094 7.191406 117.886719 7.300781 117.820312 7.425781 C 117.808594 7.417969 117.789062 7.410156 117.765625 7.414062 C 117.476562 7.425781 117.203125 7.554688 117.027344 7.785156 C 116.859375 8.003906 116.8125 8.296875 116.875 8.558594 C 116.945312 8.835938 117.125 9.070312 117.386719 9.195312 C 117.632812 9.308594 117.921875 9.3125 118.179688 9.21875 C 118.234375 9.203125 118.289062 9.175781 118.339844 9.148438 C 118.390625 9.332031 118.542969 9.488281 118.730469 9.554688 C 118.941406 9.636719 119.1875 9.605469 119.394531 9.515625 C 119.808594 9.328125 120.050781 8.851562 119.878906 8.410156 Z M 123.292969 8.894531 C 123.300781 9.125 123.195312 9.429688 122.9375 9.488281 C 122.84375 9.363281 122.707031 9.269531 122.558594 9.238281 C 122.5 9.226562 122.4375 9.246094 122.421875 9.308594 C 122.40625 9.355469 122.429688 9.429688 122.484375 9.441406 C 122.648438 9.472656 122.773438 9.578125 122.835938 9.726562 C 122.910156 9.882812 122.894531 10.066406 122.835938 10.222656 C 122.726562 10.503906 122.402344 10.746094 122.097656 10.65625 C 121.914062 10.605469 121.785156 10.453125 121.75 10.273438 C 121.746094 10.253906 121.742188 10.238281 121.734375 10.230469 C 121.757812 10.203125 121.773438 10.167969 121.792969 10.144531 C 121.851562 10.027344 121.9375 9.882812 122.089844 9.890625 C 122.164062 9.898438 122.269531 10.011719 122.203125 10.082031 C 122.167969 10.125 122.15625 10.1875 122.195312 10.230469 C 122.230469 10.269531 122.308594 10.285156 122.34375 10.242188 C 122.519531 10.050781 122.402344 9.742188 122.15625 9.6875 C 122.019531 9.660156 121.886719 9.710938 121.777344 9.796875 C 121.667969 9.886719 121.636719 10.03125 121.542969 10.136719 C 121.375 10.328125 121.082031 10.25 120.9375 10.078125 C 120.773438 9.882812 120.738281 9.597656 120.820312 9.359375 C 120.917969 9.085938 121.199219 8.910156 121.488281 8.953125 C 121.496094 8.953125 121.507812 8.957031 121.511719 8.953125 C 121.5 9.09375 121.507812 9.230469 121.535156 9.367188 C 121.5625 9.507812 121.773438 9.464844 121.742188 9.324219 C 121.648438 8.867188 121.851562 8.339844 122.332031 8.195312 C 122.796875 8.050781 123.28125 8.402344 123.292969 8.894531 Z M 123.214844 8.21875 C 123.007812 8.015625 122.722656 7.917969 122.4375 7.953125 C 122.144531 7.984375 121.871094 8.164062 121.710938 8.40625 C 121.632812 8.515625 121.585938 8.636719 121.546875 8.757812 C 121.539062 8.746094 121.519531 8.738281 121.503906 8.738281 C 121.21875 8.699219 120.929688 8.828125 120.757812 9.046875 C 120.582031 9.261719 120.527344 9.558594 120.582031 9.824219 C 120.644531 10.09375 120.832031 10.359375 121.109375 10.433594 C 121.238281 10.46875 121.375 10.464844 121.503906 10.414062 C 121.523438 10.40625 121.542969 10.394531 121.558594 10.386719 C 121.617188 10.574219 121.753906 10.738281 121.9375 10.824219 C 122.128906 10.914062 122.347656 10.894531 122.539062 10.816406 C 122.945312 10.640625 123.203125 10.144531 123.066406 9.71875 C 123.054688 9.703125 123.054688 9.695312 123.050781 9.675781 C 123.300781 9.589844 123.453125 9.320312 123.492188 9.058594 C 123.539062 8.753906 123.4375 8.433594 123.214844 8.21875 Z M 126.664062 12.585938 C 126.492188 12.644531 126.300781 12.632812 126.136719 12.558594 C 126.152344 12.410156 126.128906 12.265625 126.078125 12.132812 C 126.027344 12.003906 125.835938 12.101562 125.882812 12.230469 C 126.046875 12.632812 125.757812 13.058594 125.359375 13.164062 C 125.167969 13.214844 124.949219 13.210938 124.785156 13.085938 C 124.609375 12.957031 124.546875 12.710938 124.523438 12.503906 C 124.5 12.285156 124.5625 12.027344 124.785156 11.933594 C 124.789062 11.933594 124.792969 11.925781 124.800781 11.925781 C 124.855469 12.058594 124.941406 12.175781 125.058594 12.269531 C 125.167969 12.355469 125.285156 12.175781 125.175781 12.089844 C 125 11.945312 124.910156 11.707031 124.9375 11.484375 C 124.964844 11.257812 125.132812 11.070312 125.339844 10.980469 C 125.542969 10.898438 125.785156 10.929688 125.949219 11.074219 C 126.097656 11.210938 126.136719 11.441406 126.003906 11.601562 C 125.925781 11.6875 125.808594 11.730469 125.703125 11.683594 C 125.613281 11.636719 125.570312 11.519531 125.660156 11.445312 C 125.761719 11.359375 125.621094 11.199219 125.511719 11.289062 C 125.390625 11.390625 125.367188 11.578125 125.441406 11.71875 C 125.523438 11.867188 125.707031 11.933594 125.871094 11.910156 C 126.132812 11.867188 126.296875 11.617188 126.296875 11.371094 C 126.304688 11.367188 126.308594 11.367188 126.316406 11.367188 C 126.640625 11.269531 127.011719 11.464844 127.09375 11.796875 C 127.171875 12.125 126.992188 12.484375 126.664062 12.585938 Z M 126.988281 11.289062 C 126.785156 11.144531 126.515625 11.082031 126.273438 11.15625 C 126.273438 11.15625 126.265625 11.15625 126.261719 11.160156 C 126.140625 10.863281 125.816406 10.699219 125.507812 10.730469 C 125.183594 10.753906 124.886719 10.976562 124.773438 11.273438 C 124.742188 11.363281 124.722656 11.445312 124.71875 11.539062 C 124.378906 11.4375 124.003906 11.472656 123.679688 11.617188 C 123.671875 11.617188 123.667969 11.617188 123.664062 11.625 C 123.523438 11.367188 123.234375 11.214844 122.957031 11.15625 C 122.585938 11.070312 122.183594 11.105469 121.824219 11.234375 C 121.738281 11.261719 121.660156 11.289062 121.582031 11.328125 C 121.535156 11.351562 121.492188 11.375 121.453125 11.394531 C 121.429688 11.40625 121.410156 11.421875 121.390625 11.429688 C 121.386719 11.4375 121.34375 11.453125 121.328125 11.46875 C 121.324219 11.449219 121.308594 11.429688 121.300781 11.414062 C 121.28125 11.378906 121.257812 11.347656 121.234375 11.3125 C 121.179688 11.25 121.121094 11.195312 121.054688 11.140625 C 120.808594 10.941406 120.472656 10.863281 120.160156 10.875 C 119.691406 10.902344 119.257812 11.117188 118.84375 11.335938 C 118.835938 11.335938 118.828125 11.34375 118.824219 11.34375 C 118.632812 11.121094 118.375 10.953125 118.082031 10.875 C 117.6875 10.761719 117.265625 10.816406 116.882812 10.960938 C 116.675781 11.046875 116.480469 11.15625 116.300781 11.285156 C 116.300781 11.285156 115.898438 11.109375 115.84375 11.097656 C 115.667969 11.0625 115.492188 11.066406 115.320312 11.105469 C 114.945312 11.183594 114.585938 11.390625 114.558594 11.796875 C 114.546875 11.9375 114.546875 12.082031 114.542969 12.226562 L 114.492188 13.746094 L 114.335938 18.125 C 114.296875 19.339844 114.253906 20.546875 114.210938 21.761719 L 114.191406 22.359375 C 114.171875 22.949219 114.152344 23.539062 114.128906 24.132812 C 114.121094 24.429688 114.109375 24.722656 114.101562 25.019531 C 114.09375 25.214844 114.046875 25.433594 114.160156 25.609375 C 114.277344 25.796875 114.523438 25.953125 114.683594 26.105469 C 115.109375 26.492188 115.527344 26.878906 115.957031 27.261719 C 116.804688 28.027344 117.664062 28.789062 118.53125 29.535156 C 118.652344 29.640625 118.886719 29.5625 119.027344 29.546875 C 119.261719 29.511719 119.5 29.472656 119.734375 29.4375 C 120.203125 29.363281 120.667969 29.289062 121.140625 29.210938 C 122.074219 29.0625 123.015625 28.910156 123.953125 28.753906 C 124.324219 28.691406 124.695312 28.628906 125.074219 28.5625 C 125.179688 28.546875 125.210938 28.453125 125.25 28.363281 C 125.308594 28.25 125.371094 28.132812 125.425781 28.011719 C 125.566406 27.742188 125.703125 27.46875 125.835938 27.195312 C 126.109375 26.636719 126.378906 26.089844 126.644531 25.535156 C 127.175781 24.425781 127.691406 23.308594 128.191406 22.191406 C 128.695312 21.0625 129.179688 19.9375 129.652344 18.804688 C 129.6875 18.722656 129.71875 18.648438 129.753906 18.566406 C 129.972656 18.039062 130.1875 17.511719 130.398438 16.988281 C 130.503906 16.71875 130.609375 16.449219 130.714844 16.179688 C 130.789062 16 130.84375 15.816406 130.910156 15.636719 C 130.957031 15.515625 131.050781 15.382812 130.972656 15.273438 C 130.96875 15.265625 130.96875 15.261719 130.96875 15.257812 C 130.882812 15.003906 130.699219 14.804688 130.457031 14.695312 C 130.210938 14.578125 129.925781 14.570312 129.660156 14.613281 C 129.617188 14.269531 129.4375 13.953125 129.175781 13.722656 C 128.886719 13.480469 128.515625 13.378906 128.140625 13.40625 C 127.984375 13.421875 127.820312 13.46875 127.675781 13.539062 C 127.574219 13.15625 127.324219 12.839844 127 12.648438 C 127.066406 12.59375 127.132812 12.523438 127.179688 12.445312 C 127.425781 12.074219 127.351562 11.554688 126.988281 11.289062 Z M 124.679688 11.742188 C 124.433594 11.851562 124.3125 12.121094 124.308594 12.382812 C 124.304688 12.652344 124.375 12.972656 124.566406 13.171875 C 124.953125 13.59375 125.683594 13.410156 125.980469 12.980469 C 126.03125 12.914062 126.066406 12.839844 126.09375 12.765625 C 126.316406 12.851562 126.570312 12.851562 126.789062 12.769531 C 126.804688 12.777344 126.820312 12.785156 126.839844 12.796875 C 127.1875 12.984375 127.429688 13.332031 127.5 13.71875 C 127.507812 13.785156 127.589844 13.824219 127.652344 13.789062 C 128 13.582031 128.457031 13.550781 128.824219 13.746094 C 129.1875 13.933594 129.425781 14.308594 129.457031 14.71875 C 129.460938 14.773438 129.53125 14.808594 129.582031 14.800781 C 129.582031 14.800781 129.589844 14.800781 129.589844 14.800781 C 129.609375 14.816406 129.640625 14.835938 129.675781 14.828125 C 129.90625 14.78125 130.144531 14.789062 130.355469 14.882812 C 130.453125 14.925781 130.539062 14.988281 130.613281 15.066406 C 130.214844 14.90625 129.761719 14.945312 129.378906 15.15625 C 128.648438 14.554688 127.523438 14.558594 126.808594 15.179688 C 125.894531 14.652344 124.699219 14.730469 123.867188 15.378906 C 123.703125 15.1875 123.5 15.046875 123.277344 14.949219 C 123.433594 13.910156 123.582031 12.875 123.730469 11.835938 C 123.804688 11.808594 123.871094 11.765625 123.945312 11.746094 C 124.042969 11.710938 124.148438 11.695312 124.25 11.691406 C 124.394531 11.6875 124.539062 11.703125 124.679688 11.742188 Z M 126.996094 8.011719 C 126.835938 8.066406 126.644531 8.058594 126.496094 7.976562 C 126.488281 7.972656 126.484375 7.972656 126.476562 7.96875 C 126.472656 7.894531 126.464844 7.820312 126.441406 7.746094 C 126.425781 7.691406 126.378906 7.648438 126.316406 7.660156 C 126.261719 7.671875 126.21875 7.734375 126.234375 7.789062 C 126.359375 8.203125 126.117188 8.667969 125.6875 8.757812 C 125.476562 8.804688 125.25 8.765625 125.078125 8.640625 C 124.90625 8.515625 124.800781 8.3125 124.777344 8.105469 C 124.746094 7.902344 124.820312 7.613281 125.035156 7.535156 C 125.125 7.667969 125.273438 7.746094 125.429688 7.785156 C 125.5625 7.824219 125.628906 7.621094 125.496094 7.582031 C 125.386719 7.554688 125.269531 7.507812 125.203125 7.410156 C 125.148438 7.316406 125.136719 7.199219 125.167969 7.09375 C 125.230469 6.867188 125.414062 6.679688 125.625 6.585938 C 125.828125 6.492188 126.085938 6.503906 126.234375 6.679688 C 126.363281 6.832031 126.359375 7.109375 126.152344 7.191406 C 126.054688 7.222656 125.929688 7.203125 125.871094 7.117188 C 125.816406 7.046875 125.828125 6.941406 125.898438 6.886719 C 126.007812 6.804688 125.867188 6.644531 125.757812 6.726562 C 125.636719 6.820312 125.601562 6.980469 125.644531 7.121094 C 125.6875 7.273438 125.816406 7.378906 125.972656 7.410156 C 126.265625 7.460938 126.5 7.234375 126.53125 6.964844 C 126.566406 6.980469 126.605469 6.976562 126.640625 6.945312 C 126.917969 6.722656 127.308594 6.945312 127.386719 7.257812 C 127.46875 7.566406 127.304688 7.90625 126.996094 8.011719 Z M 127.230469 6.734375 C 127.003906 6.609375 126.730469 6.625 126.519531 6.769531 C 126.441406 6.457031 126.097656 6.28125 125.789062 6.324219 C 125.464844 6.363281 125.160156 6.597656 125.019531 6.882812 C 124.953125 7.03125 124.921875 7.183594 124.953125 7.339844 C 124.707031 7.433594 124.578125 7.703125 124.5625 7.953125 C 124.542969 8.226562 124.648438 8.511719 124.839844 8.707031 C 125.238281 9.117188 125.953125 9.070312 126.289062 8.609375 C 126.378906 8.488281 126.441406 8.34375 126.464844 8.195312 C 126.835938 8.34375 127.292969 8.21875 127.5 7.859375 C 127.722656 7.480469 127.628906 6.949219 127.230469 6.734375 Z M 125.035156 5.503906 C 125.039062 5.695312 124.914062 5.890625 124.730469 5.949219 C 124.546875 6.015625 124.328125 5.953125 124.210938 5.796875 C 124.148438 5.714844 124.132812 5.589844 124.234375 5.523438 C 124.316406 5.472656 124.4375 5.523438 124.460938 5.613281 C 124.5 5.746094 124.707031 5.703125 124.667969 5.570312 C 124.625 5.414062 124.484375 5.289062 124.320312 5.289062 C 124.15625 5.285156 124.007812 5.398438 123.964844 5.542969 C 123.871094 5.828125 124.125 6.070312 124.382812 6.152344 C 124.410156 6.324219 124.363281 6.5 124.238281 6.625 C 124.105469 6.765625 123.898438 6.816406 123.710938 6.777344 C 123.527344 6.746094 123.371094 6.621094 123.277344 6.453125 C 123.207031 6.332031 123.121094 6.101562 123.257812 5.988281 C 123.269531 5.972656 123.28125 5.964844 123.285156 5.953125 C 123.386719 5.980469 123.496094 5.984375 123.601562 5.96875 C 123.742188 5.953125 123.695312 5.742188 123.558594 5.757812 C 123.144531 5.808594 122.667969 5.410156 122.710938 4.980469 C 122.746094 4.542969 123.230469 4.261719 123.640625 4.394531 C 123.84375 4.460938 124.027344 4.628906 124.101562 4.839844 C 124.027344 4.875 123.964844 4.933594 123.910156 5.003906 C 123.875 5.050781 123.894531 5.121094 123.941406 5.152344 C 123.988281 5.1875 124.046875 5.164062 124.082031 5.125 C 124.382812 4.738281 125.019531 5.0625 125.035156 5.503906 Z M 124.882812 4.878906 C 124.710938 4.757812 124.496094 4.71875 124.296875 4.765625 C 124.203125 4.523438 124.03125 4.332031 123.796875 4.222656 C 123.546875 4.113281 123.269531 4.125 123.027344 4.230469 C 122.777344 4.347656 122.570312 4.578125 122.511719 4.855469 C 122.449219 5.15625 122.558594 5.4375 122.769531 5.652344 C 122.855469 5.742188 122.957031 5.820312 123.070312 5.871094 C 122.960938 5.996094 122.957031 6.1875 123 6.339844 C 123.054688 6.539062 123.175781 6.71875 123.339844 6.84375 C 123.679688 7.097656 124.191406 7.046875 124.449219 6.707031 C 124.5625 6.558594 124.617188 6.371094 124.601562 6.1875 C 124.875 6.179688 125.125 5.988281 125.210938 5.722656 C 125.320312 5.402344 125.148438 5.058594 124.882812 4.878906 Z M 130.449219 9.527344 C 130.316406 9.320312 130.101562 9.175781 129.859375 9.132812 C 129.597656 9.089844 129.304688 9.207031 129.09375 9.359375 C 129.039062 9.398438 128.992188 9.441406 128.949219 9.492188 C 128.925781 9.519531 128.875 9.628906 128.847656 9.632812 C 128.835938 9.636719 128.828125 9.632812 128.824219 9.632812 C 128.59375 9.554688 128.398438 9.535156 128.175781 9.628906 C 127.96875 9.71875 127.78125 9.871094 127.667969 10.058594 C 127.4375 10.433594 127.496094 11.003906 127.910156 11.222656 C 128.085938 11.3125 128.285156 11.339844 128.472656 11.277344 C 128.484375 11.324219 128.496094 11.367188 128.511719 11.410156 C 128.648438 11.714844 128.96875 11.875 129.296875 11.851562 C 129.613281 11.824219 129.878906 11.613281 130.011719 11.328125 C 130.078125 11.183594 130.097656 11.023438 130.078125 10.875 C 130.089844 10.871094 130.105469 10.867188 130.117188 10.859375 C 130.574219 10.59375 130.746094 9.984375 130.449219 9.527344 Z M 129.21875 15.582031 L 128.304688 18.105469 C 127.992188 18.96875 127.675781 19.832031 127.363281 20.6875 C 127.0625 21.527344 126.761719 22.363281 126.449219 23.195312 C 126.148438 24.011719 125.839844 24.828125 125.511719 25.628906 C 125.179688 26.433594 124.828125 27.230469 124.449219 28.007812 C 124.40625 28.089844 124.363281 28.175781 124.320312 28.257812 C 123.894531 28.332031 123.46875 28.40625 123.039062 28.476562 L 123.976562 25.507812 C 124.164062 25.449219 124.347656 25.363281 124.515625 25.269531 C 125.363281 24.804688 126.027344 23.984375 126.253906 23.042969 C 126.386719 22.492188 126.382812 21.882812 125.980469 21.4375 C 125.855469 21.296875 125.699219 21.1875 125.527344 21.101562 C 125.9375 19.691406 126.324219 18.277344 126.691406 16.859375 C 126.800781 16.433594 126.910156 16.011719 127.019531 15.59375 C 127.019531 15.578125 127.019531 15.574219 127.023438 15.5625 C 127.609375 15 128.609375 14.976562 129.199219 15.5625 C 129.207031 15.566406 129.210938 15.570312 129.21875 15.582031 Z M 123.726562 25.578125 L 122.804688 28.511719 C 122.15625 28.621094 121.503906 28.722656 120.855469 28.828125 C 121.019531 28.050781 121.183594 27.273438 121.359375 26.5 C 121.492188 25.910156 121.628906 25.320312 121.765625 24.730469 C 121.808594 24.824219 121.859375 24.921875 121.921875 25.011719 C 122.355469 25.640625 123.058594 25.738281 123.726562 25.578125 Z M 122.414062 22.101562 C 122.472656 21.84375 122.542969 21.582031 122.613281 21.320312 C 122.832031 20.476562 123.058594 19.632812 123.273438 18.785156 C 123.488281 17.941406 123.679688 17.097656 123.828125 16.242188 C 123.84375 16.136719 123.867188 16.027344 123.878906 15.914062 C 123.882812 15.910156 123.882812 15.898438 123.878906 15.886719 C 123.917969 15.878906 123.957031 15.867188 123.984375 15.835938 C 124.722656 15.152344 125.878906 15.0625 126.714844 15.632812 C 126.734375 15.644531 126.757812 15.652344 126.785156 15.65625 C 126.414062 17.105469 126.03125 18.550781 125.625 19.996094 C 125.523438 20.339844 125.429688 20.679688 125.332031 21.027344 C 125.148438 20.964844 124.953125 20.945312 124.761719 20.960938 C 124.367188 20.9375 123.953125 21.070312 123.601562 21.226562 C 123.148438 21.429688 122.738281 21.730469 122.414062 22.101562 Z M 125.269531 23.324219 C 125.273438 23.328125 125.273438 23.335938 125.273438 23.339844 C 125.277344 23.351562 125.273438 23.363281 125.277344 23.375 C 125.277344 23.375 125.273438 23.382812 125.273438 23.386719 C 125.269531 23.398438 125.265625 23.410156 125.261719 23.417969 C 125.261719 23.425781 125.257812 23.429688 125.253906 23.433594 C 125.253906 23.4375 125.25 23.4375 125.25 23.445312 C 125.25 23.445312 125.246094 23.445312 125.246094 23.445312 C 125.238281 23.453125 125.234375 23.457031 125.230469 23.460938 C 125.246094 23.449219 125.246094 23.449219 125.230469 23.460938 C 125.226562 23.464844 125.214844 23.46875 125.210938 23.46875 C 125.210938 23.46875 125.183594 23.480469 125.175781 23.480469 C 125.171875 23.484375 125.167969 23.484375 125.160156 23.484375 C 125.160156 23.484375 125.160156 23.484375 125.15625 23.484375 C 125.125 23.488281 125.101562 23.484375 125.078125 23.480469 C 125.074219 23.480469 125.050781 23.472656 125.050781 23.472656 C 125.03125 23.472656 125.019531 23.46875 125.007812 23.464844 C 124.988281 23.457031 124.96875 23.449219 124.953125 23.449219 C 124.980469 23.339844 125.015625 23.226562 125.058594 23.121094 C 125.070312 23.125 125.074219 23.128906 125.089844 23.132812 C 125.089844 23.132812 125.113281 23.144531 125.113281 23.144531 C 125.140625 23.15625 125.160156 23.175781 125.179688 23.1875 C 125.1875 23.191406 125.195312 23.195312 125.199219 23.203125 C 125.207031 23.210938 125.214844 23.222656 125.222656 23.226562 C 125.222656 23.230469 125.238281 23.257812 125.238281 23.25 C 125.246094 23.261719 125.253906 23.269531 125.257812 23.28125 C 125.257812 23.289062 125.265625 23.292969 125.265625 23.296875 C 125.269531 23.308594 125.269531 23.320312 125.269531 23.324219 Z M 125.234375 22.914062 C 125.097656 22.84375 124.957031 22.820312 124.808594 22.800781 C 124.734375 22.785156 124.667969 22.855469 124.671875 22.925781 C 124.671875 23 124.71875 23.046875 124.796875 23.058594 C 124.796875 23.058594 124.796875 23.058594 124.804688 23.058594 C 124.6875 23.382812 124.597656 23.714844 124.546875 24.054688 C 124.539062 24.117188 124.609375 24.183594 124.671875 24.1875 C 124.753906 24.1875 124.800781 24.132812 124.808594 24.0625 C 124.828125 23.9375 124.855469 23.816406 124.882812 23.703125 C 124.988281 23.734375 125.101562 23.753906 125.210938 23.738281 C 125.351562 23.722656 125.460938 23.628906 125.507812 23.503906 C 125.605469 23.269531 125.445312 23.019531 125.234375 22.914062 Z M 124.152344 23.277344 C 124.15625 23.433594 124.125 23.617188 124.042969 23.75 C 124.007812 23.820312 123.949219 23.878906 123.875 23.898438 C 123.878906 23.898438 123.898438 23.898438 123.867188 23.898438 C 123.855469 23.902344 123.847656 23.90625 123.835938 23.90625 C 123.839844 23.90625 123.8125 23.90625 123.804688 23.902344 C 123.789062 23.898438 123.765625 23.886719 123.75 23.867188 C 123.707031 23.8125 123.699219 23.726562 123.703125 23.652344 C 123.699219 23.578125 123.710938 23.496094 123.726562 23.417969 C 123.75 23.332031 123.789062 23.246094 123.835938 23.160156 C 123.851562 23.128906 123.875 23.089844 123.902344 23.066406 C 123.902344 23.066406 123.902344 23.0625 123.90625 23.058594 C 123.992188 22.992188 124.109375 23.070312 124.140625 23.15625 C 124.152344 23.191406 124.15625 23.238281 124.152344 23.277344 Z M 124.238281 22.855469 C 124.125 22.769531 123.929688 22.738281 123.792969 22.820312 C 123.640625 22.914062 123.554688 23.101562 123.503906 23.269531 C 123.429688 23.496094 123.390625 23.792969 123.527344 24.003906 C 123.597656 24.117188 123.730469 24.175781 123.859375 24.167969 C 123.996094 24.160156 124.113281 24.078125 124.199219 23.980469 C 124.363281 23.789062 124.421875 23.5 124.417969 23.253906 C 124.410156 23.105469 124.363281 22.949219 124.238281 22.855469 Z M 123.160156 23.195312 C 123.160156 23.203125 123.164062 23.207031 123.164062 23.210938 C 123.164062 23.222656 123.164062 23.234375 123.164062 23.246094 C 123.164062 23.246094 123.167969 23.253906 123.160156 23.257812 C 123.160156 23.269531 123.15625 23.28125 123.152344 23.289062 C 123.152344 23.296875 123.148438 23.300781 123.148438 23.300781 C 123.144531 23.308594 123.144531 23.3125 123.140625 23.316406 C 123.132812 23.320312 123.128906 23.328125 123.125 23.328125 C 123.132812 23.320312 123.132812 23.320312 123.117188 23.332031 C 123.113281 23.335938 123.109375 23.339844 123.097656 23.347656 C 123.097656 23.339844 123.070312 23.351562 123.066406 23.351562 C 123.066406 23.351562 123.0625 23.355469 123.054688 23.355469 C 123.050781 23.355469 123.050781 23.355469 123.042969 23.359375 C 123.019531 23.355469 122.992188 23.355469 122.96875 23.351562 C 122.960938 23.351562 122.945312 23.347656 122.9375 23.351562 C 122.925781 23.347656 122.910156 23.339844 122.894531 23.335938 C 122.878906 23.335938 122.859375 23.328125 122.839844 23.320312 C 122.871094 23.210938 122.90625 23.105469 122.945312 22.992188 C 122.953125 22.996094 122.964844 23 122.976562 23.003906 C 122.976562 23.007812 123.003906 23.015625 123.003906 23.019531 C 123.027344 23.035156 123.050781 23.046875 123.070312 23.058594 C 123.074219 23.0625 123.082031 23.066406 123.089844 23.074219 C 123.097656 23.082031 123.105469 23.09375 123.109375 23.097656 C 123.113281 23.101562 123.128906 23.128906 123.128906 23.121094 C 123.136719 23.132812 123.144531 23.140625 123.144531 23.152344 C 123.148438 23.160156 123.152344 23.164062 123.15625 23.167969 C 123.15625 23.179688 123.160156 23.191406 123.160156 23.195312 Z M 123.121094 22.785156 C 122.980469 22.714844 122.839844 22.695312 122.691406 22.671875 C 122.621094 22.664062 122.554688 22.734375 122.558594 22.804688 C 122.554688 22.878906 122.609375 22.925781 122.683594 22.9375 C 122.6875 22.9375 122.6875 22.9375 122.6875 22.9375 C 122.574219 23.257812 122.496094 23.589844 122.445312 23.929688 C 122.433594 24 122.507812 24.066406 122.574219 24.0625 C 122.648438 24.066406 122.695312 24.007812 122.710938 23.9375 C 122.722656 23.8125 122.746094 23.695312 122.773438 23.574219 C 122.882812 23.609375 122.996094 23.632812 123.109375 23.613281 C 123.246094 23.589844 123.355469 23.5 123.402344 23.371094 C 123.492188 23.132812 123.332031 22.886719 123.121094 22.785156 Z M 117.804688 21.925781 C 117.804688 21.925781 117.804688 21.929688 117.808594 21.9375 C 117.804688 21.949219 117.804688 21.953125 117.804688 21.960938 C 117.800781 21.964844 117.804688 21.972656 117.804688 21.972656 C 117.804688 21.972656 117.804688 21.972656 117.804688 21.976562 C 117.800781 21.984375 117.796875 21.992188 117.792969 22.003906 C 117.792969 22.003906 117.792969 22.007812 117.789062 22.007812 C 117.789062 22.015625 117.785156 22.015625 117.785156 22.015625 C 117.777344 22.023438 117.777344 22.023438 117.777344 22.023438 C 117.773438 22.023438 117.773438 22.027344 117.769531 22.03125 C 117.777344 22.023438 117.777344 22.023438 117.769531 22.03125 C 117.757812 22.039062 117.753906 22.039062 117.75 22.039062 C 117.75 22.039062 117.726562 22.046875 117.726562 22.046875 C 117.722656 22.046875 117.714844 22.046875 117.710938 22.046875 C 117.710938 22.046875 117.710938 22.046875 117.703125 22.050781 C 117.679688 22.046875 117.664062 22.046875 117.640625 22.046875 C 117.640625 22.039062 117.621094 22.039062 117.621094 22.039062 C 117.609375 22.035156 117.597656 22.03125 117.585938 22.027344 C 117.566406 22.027344 117.554688 22.015625 117.542969 22.015625 C 117.570312 21.921875 117.601562 21.835938 117.636719 21.753906 C 117.644531 21.757812 117.648438 21.757812 117.660156 21.757812 C 117.664062 21.765625 117.683594 21.773438 117.683594 21.773438 C 117.703125 21.785156 117.714844 21.800781 117.734375 21.808594 C 117.742188 21.8125 117.742188 21.816406 117.75 21.820312 C 117.757812 21.828125 117.757812 21.835938 117.765625 21.839844 C 117.765625 21.847656 117.78125 21.863281 117.78125 21.863281 C 117.789062 21.871094 117.789062 21.875 117.792969 21.886719 C 117.796875 21.890625 117.796875 21.890625 117.800781 21.898438 C 117.800781 21.898438 117.800781 21.902344 117.800781 21.902344 C 117.800781 21.910156 117.804688 21.917969 117.804688 21.925781 Z M 117.78125 21.585938 C 117.675781 21.527344 117.558594 21.503906 117.4375 21.484375 C 117.382812 21.472656 117.328125 21.53125 117.328125 21.582031 C 117.324219 21.644531 117.363281 21.683594 117.425781 21.695312 C 117.425781 21.699219 117.429688 21.699219 117.429688 21.699219 C 117.328125 21.953125 117.253906 22.222656 117.199219 22.492188 C 117.1875 22.550781 117.242188 22.605469 117.296875 22.609375 C 117.359375 22.613281 117.402344 22.566406 117.410156 22.511719 C 117.429688 22.410156 117.453125 22.3125 117.480469 22.214844 C 117.566406 22.25 117.65625 22.265625 117.746094 22.257812 C 117.859375 22.246094 117.949219 22.175781 117.992188 22.078125 C 118.078125 21.882812 117.953125 21.675781 117.78125 21.585938 Z M 117.007812 21.503906 C 116.984375 21.628906 116.933594 21.769531 116.851562 21.867188 C 116.808594 21.917969 116.753906 21.957031 116.699219 21.964844 C 116.699219 21.96875 116.714844 21.964844 116.6875 21.964844 C 116.683594 21.964844 116.671875 21.96875 116.664062 21.964844 C 116.671875 21.964844 116.644531 21.957031 116.640625 21.957031 C 116.621094 21.949219 116.609375 21.941406 116.597656 21.921875 C 116.578125 21.875 116.578125 21.804688 116.589844 21.746094 C 116.601562 21.683594 116.621094 21.617188 116.644531 21.5625 C 116.675781 21.492188 116.71875 21.425781 116.765625 21.371094 C 116.785156 21.34375 116.808594 21.316406 116.832031 21.296875 C 116.832031 21.296875 116.832031 21.296875 116.835938 21.296875 C 116.914062 21.253906 117 21.332031 117.007812 21.40625 C 117.015625 21.4375 117.011719 21.472656 117.007812 21.503906 Z M 117.128906 21.179688 C 117.046875 21.085938 116.894531 21.042969 116.777344 21.089844 C 116.644531 21.140625 116.546875 21.289062 116.488281 21.410156 C 116.394531 21.578125 116.324219 21.8125 116.402344 22 C 116.445312 22.101562 116.546875 22.167969 116.652344 22.179688 C 116.757812 22.191406 116.863281 22.140625 116.945312 22.074219 C 117.101562 21.945312 117.1875 21.71875 117.214844 21.519531 C 117.238281 21.398438 117.214844 21.265625 117.128906 21.179688 Z M 116.339844 21.03125 C 116.339844 21.03125 116.34375 21.039062 116.34375 21.042969 C 116.335938 21.042969 116.335938 21.042969 116.335938 21.042969 C 116.339844 21.050781 116.339844 21.0625 116.335938 21.066406 C 116.335938 21.074219 116.335938 21.074219 116.339844 21.078125 C 116.339844 21.078125 116.339844 21.078125 116.332031 21.078125 C 116.335938 21.089844 116.332031 21.097656 116.328125 21.105469 C 116.328125 21.109375 116.324219 21.109375 116.324219 21.117188 C 116.316406 21.117188 116.320312 21.121094 116.3125 21.125 C 116.308594 21.128906 116.304688 21.132812 116.300781 21.136719 C 116.308594 21.128906 116.308594 21.128906 116.300781 21.136719 C 116.292969 21.140625 116.289062 21.144531 116.285156 21.148438 C 116.285156 21.148438 116.261719 21.152344 116.257812 21.152344 C 116.25 21.152344 116.25 21.152344 116.246094 21.15625 C 116.246094 21.15625 116.238281 21.15625 116.238281 21.15625 C 116.21875 21.15625 116.199219 21.152344 116.175781 21.148438 C 116.167969 21.148438 116.15625 21.144531 116.152344 21.144531 C 116.140625 21.140625 116.128906 21.140625 116.121094 21.132812 C 116.101562 21.132812 116.089844 21.125 116.070312 21.121094 C 116.105469 21.027344 116.132812 20.941406 116.167969 20.855469 C 116.179688 20.859375 116.1875 20.863281 116.191406 20.867188 C 116.199219 20.867188 116.210938 20.878906 116.21875 20.878906 C 116.238281 20.886719 116.25 20.902344 116.269531 20.914062 C 116.273438 20.917969 116.277344 20.925781 116.28125 20.929688 C 116.285156 20.933594 116.292969 20.9375 116.300781 20.949219 C 116.300781 20.949219 116.316406 20.96875 116.316406 20.96875 C 116.320312 20.980469 116.324219 20.984375 116.328125 20.996094 C 116.328125 20.996094 116.328125 21 116.335938 21.003906 C 116.335938 21.015625 116.339844 21.019531 116.339844 21.03125 Z M 116.316406 20.691406 C 116.207031 20.632812 116.09375 20.613281 115.972656 20.589844 C 115.914062 20.578125 115.859375 20.636719 115.855469 20.6875 C 115.859375 20.753906 115.902344 20.789062 115.960938 20.800781 C 115.960938 20.800781 115.960938 20.800781 115.96875 20.804688 C 115.859375 21.0625 115.78125 21.324219 115.734375 21.597656 C 115.722656 21.660156 115.78125 21.710938 115.832031 21.710938 C 115.894531 21.714844 115.933594 21.671875 115.945312 21.613281 C 115.964844 21.515625 115.984375 21.421875 116.011719 21.324219 C 116.097656 21.351562 116.1875 21.375 116.28125 21.367188 C 116.394531 21.355469 116.484375 21.277344 116.527344 21.179688 C 116.613281 20.988281 116.484375 20.785156 116.316406 20.691406 Z M 118.152344 23.382812 C 117.996094 23.753906 117.65625 23.9375 117.257812 23.871094 C 116.882812 23.808594 116.585938 23.542969 116.359375 23.25 C 115.871094 22.621094 115.605469 21.808594 115.578125 21.015625 C 115.566406 20.617188 115.589844 20.164062 115.796875 19.816406 C 115.910156 19.632812 116.128906 19.460938 116.347656 19.441406 C 116.640625 19.414062 117.128906 19.75 117.335938 19.945312 C 117.660156 20.238281 117.855469 20.65625 118.007812 21.066406 C 118.28125 21.78125 118.457031 22.648438 118.152344 23.382812 Z M 118.601562 21.519531 C 118.464844 20.972656 118.261719 20.425781 117.925781 19.972656 C 117.765625 19.757812 117.546875 19.53125 117.300781 19.359375 C 117.550781 17.953125 117.765625 16.546875 117.941406 15.132812 C 117.988281 14.742188 118.035156 14.359375 118.078125 13.972656 C 118.082031 13.972656 118.085938 13.972656 118.09375 13.96875 C 118.792969 13.769531 119.550781 14.246094 119.671875 14.964844 C 119.671875 14.976562 119.675781 14.992188 119.679688 15.003906 C 119.675781 15.011719 119.675781 15.015625 119.671875 15.023438 L 118.851562 20.078125 L 118.621094 21.503906 C 118.613281 21.507812 118.605469 21.515625 118.601562 21.519531 Z M 117.101562 19.234375 C 116.75 19.035156 116.355469 18.945312 115.972656 19.109375 C 115.808594 19.175781 115.671875 19.285156 115.5625 19.417969 C 115.664062 18.179688 115.773438 16.933594 115.894531 15.699219 C 115.984375 14.75 116.082031 13.804688 116.1875 12.855469 C 116.230469 12.867188 116.269531 12.859375 116.304688 12.839844 C 117.011719 12.402344 117.894531 12.902344 117.835938 13.746094 C 117.832031 13.792969 117.847656 13.84375 117.875 13.882812 C 117.871094 13.890625 117.871094 13.902344 117.867188 13.90625 C 117.714844 15.335938 117.519531 16.757812 117.285156 18.171875 C 117.226562 18.53125 117.167969 18.878906 117.101562 19.234375 Z M 115.3125 19.847656 C 115.285156 19.921875 115.261719 19.996094 115.242188 20.074219 C 115.128906 20.535156 115.117188 21.019531 115.191406 21.5 C 115.148438 22.019531 115.117188 22.542969 115.082031 23.058594 C 115.023438 23.957031 114.972656 24.851562 114.921875 25.75 C 114.800781 25.632812 114.675781 25.519531 114.550781 25.402344 C 114.539062 25.394531 114.527344 25.386719 114.511719 25.375 L 114.882812 14.75 C 114.914062 13.769531 114.949219 12.785156 114.984375 11.800781 C 115.5 11.769531 115.941406 12.191406 115.996094 12.691406 C 116 12.699219 116 12.707031 116.003906 12.71875 L 115.996094 12.757812 C 115.992188 12.769531 115.992188 12.777344 115.988281 12.785156 C 115.984375 12.796875 115.980469 12.808594 115.980469 12.824219 C 115.789062 14.53125 115.621094 16.242188 115.472656 17.949219 C 115.414062 18.585938 115.363281 19.21875 115.3125 19.847656 Z M 115.351562 22.207031 C 115.449219 22.507812 115.578125 22.792969 115.722656 23.058594 C 115.875 23.320312 116.074219 23.589844 116.3125 23.816406 C 116.308594 23.828125 116.296875 23.84375 116.296875 23.859375 L 115.820312 26.566406 C 115.585938 26.355469 115.359375 26.148438 115.128906 25.9375 C 115.191406 24.691406 115.269531 23.453125 115.351562 22.207031 Z M 116.492188 23.96875 C 116.859375 24.25 117.292969 24.402344 117.753906 24.273438 L 117.285156 27.070312 L 117.164062 27.777344 C 116.777344 27.429688 116.390625 27.085938 116.003906 26.734375 Z M 117.980469 24.179688 C 118.644531 23.855469 118.785156 22.96875 118.722656 22.230469 C 118.75 22.109375 118.765625 21.992188 118.78125 21.867188 C 118.847656 21.328125 118.953125 20.78125 119.042969 20.234375 L 119.351562 18.324219 C 119.433594 17.8125 119.519531 17.300781 119.601562 16.789062 C 119.613281 16.699219 119.628906 16.613281 119.644531 16.523438 L 119.871094 15.125 C 119.90625 15.128906 119.945312 15.121094 119.976562 15.109375 C 120.207031 15.027344 120.472656 14.984375 120.71875 15.042969 C 120.839844 15.066406 120.953125 15.117188 121.039062 15.203125 C 121.105469 15.269531 121.164062 15.359375 121.1875 15.445312 C 121.214844 15.554688 121.171875 15.667969 121.144531 15.765625 C 121.082031 16.042969 121.015625 16.316406 120.953125 16.59375 C 120.828125 17.140625 120.707031 17.6875 120.585938 18.242188 C 120.34375 19.335938 120.113281 20.441406 119.890625 21.542969 C 119.664062 22.644531 119.449219 23.746094 119.246094 24.851562 C 119.164062 25.273438 119.089844 25.691406 119.011719 26.117188 C 118.84375 27.0625 118.679688 28.015625 118.523438 28.96875 C 118.132812 28.625 117.742188 28.285156 117.355469 27.9375 L 117.859375 24.921875 Z M 122.082031 22.539062 C 121.746094 23.066406 121.539062 23.71875 121.640625 24.324219 C 121.5 24.921875 121.363281 25.519531 121.226562 26.113281 C 121.03125 26.976562 120.84375 27.839844 120.664062 28.710938 L 120.632812 28.859375 C 120.066406 28.949219 119.492188 29.042969 118.925781 29.132812 C 119.503906 25.613281 120.175781 22.109375 120.933594 18.628906 C 121.046875 18.117188 121.160156 17.601562 121.277344 17.082031 C 121.339844 16.824219 121.394531 16.5625 121.457031 16.304688 C 121.484375 16.171875 121.511719 16.046875 121.542969 15.917969 C 121.582031 15.75 121.570312 15.539062 121.726562 15.441406 C 121.839844 15.371094 121.972656 15.324219 122.097656 15.289062 C 122.28125 15.234375 122.464844 15.210938 122.652344 15.226562 C 123.042969 15.261719 123.394531 15.457031 123.636719 15.765625 C 123.652344 15.785156 123.667969 15.804688 123.683594 15.824219 C 123.683594 15.828125 123.691406 15.832031 123.699219 15.839844 C 123.683594 15.859375 123.671875 15.878906 123.671875 15.902344 C 123.53125 16.757812 123.347656 17.605469 123.140625 18.445312 C 122.9375 19.285156 122.707031 20.121094 122.484375 20.953125 C 122.347656 21.480469 122.214844 22.007812 122.082031 22.539062 Z M 129.140625 26.726562 C 129.144531 26.960938 129.039062 27.265625 128.785156 27.320312 C 128.6875 27.199219 128.558594 27.109375 128.402344 27.074219 C 128.347656 27.0625 128.289062 27.078125 128.265625 27.140625 C 128.25 27.191406 128.277344 27.265625 128.335938 27.277344 C 128.492188 27.3125 128.617188 27.414062 128.6875 27.5625 C 128.757812 27.71875 128.746094 27.898438 128.679688 28.0625 C 128.570312 28.335938 128.246094 28.582031 127.941406 28.488281 C 127.765625 28.441406 127.628906 28.289062 127.597656 28.105469 C 127.59375 28.089844 127.585938 28.074219 127.582031 28.0625 C 127.601562 28.035156 127.625 28.007812 127.640625 27.976562 C 127.703125 27.859375 127.78125 27.71875 127.9375 27.726562 C 128.011719 27.734375 128.117188 27.84375 128.046875 27.917969 C 128.011719 27.957031 128 28.023438 128.039062 28.066406 C 128.074219 28.105469 128.152344 28.117188 128.191406 28.078125 C 128.363281 27.886719 128.246094 27.578125 128 27.523438 C 127.867188 27.492188 127.730469 27.546875 127.625 27.628906 C 127.511719 27.722656 127.480469 27.867188 127.386719 27.972656 C 127.226562 28.160156 126.933594 28.082031 126.78125 27.914062 C 126.617188 27.714844 126.582031 27.429688 126.664062 27.195312 C 126.761719 26.921875 127.042969 26.746094 127.332031 26.789062 C 127.34375 26.785156 127.351562 26.789062 127.363281 26.789062 C 127.34375 26.929688 127.351562 27.070312 127.378906 27.203125 C 127.40625 27.339844 127.617188 27.296875 127.585938 27.160156 C 127.492188 26.703125 127.695312 26.175781 128.175781 26.027344 C 128.644531 25.886719 129.125 26.234375 129.140625 26.726562 Z M 130.6875 24.144531 C 130.695312 24.339844 130.566406 24.53125 130.386719 24.597656 C 130.203125 24.660156 129.984375 24.59375 129.867188 24.445312 C 129.800781 24.355469 129.789062 24.234375 129.890625 24.167969 C 129.96875 24.117188 130.089844 24.164062 130.113281 24.257812 C 130.152344 24.386719 130.363281 24.351562 130.324219 24.214844 C 130.28125 24.058594 130.140625 23.9375 129.972656 23.929688 C 129.8125 23.929688 129.664062 24.039062 129.617188 24.1875 C 129.527344 24.476562 129.777344 24.71875 130.039062 24.800781 C 130.066406 24.96875 130.015625 25.152344 129.894531 25.273438 C 129.761719 25.410156 129.554688 25.464844 129.367188 25.429688 C 129.183594 25.390625 129.023438 25.261719 128.933594 25.105469 C 128.863281 24.980469 128.773438 24.746094 128.910156 24.632812 C 128.925781 24.621094 128.933594 24.609375 128.9375 24.597656 C 129.042969 24.621094 129.152344 24.628906 129.257812 24.617188 C 129.398438 24.601562 129.355469 24.390625 129.214844 24.410156 C 128.800781 24.460938 128.320312 24.058594 128.363281 23.625 C 128.402344 23.191406 128.882812 22.902344 129.296875 23.035156 C 129.5 23.109375 129.683594 23.273438 129.753906 23.480469 C 129.683594 23.527344 129.617188 23.578125 129.5625 23.648438 C 129.527344 23.695312 129.546875 23.765625 129.59375 23.796875 C 129.640625 23.832031 129.707031 23.8125 129.738281 23.765625 C 130.039062 23.390625 130.671875 23.707031 130.6875 24.144531 Z M 130.539062 23.523438 C 130.363281 23.402344 130.148438 23.359375 129.953125 23.40625 C 129.855469 23.167969 129.683594 22.980469 129.449219 22.871094 C 129.203125 22.761719 128.925781 22.769531 128.683594 22.882812 C 128.429688 22.996094 128.226562 23.226562 128.167969 23.503906 C 128.101562 23.800781 128.210938 24.082031 128.421875 24.296875 C 128.511719 24.386719 128.613281 24.464844 128.726562 24.519531 C 128.621094 24.644531 128.613281 24.832031 128.65625 24.988281 C 128.710938 25.191406 128.832031 25.367188 128.996094 25.488281 C 129.335938 25.746094 129.847656 25.691406 130.105469 25.351562 C 130.21875 25.207031 130.269531 25.019531 130.253906 24.832031 C 130.53125 24.828125 130.777344 24.636719 130.867188 24.367188 C 130.972656 24.046875 130.804688 23.707031 130.539062 23.523438 Z M 132.378906 26.898438 C 132.21875 26.953125 132.027344 26.941406 131.871094 26.859375 C 131.871094 26.859375 131.867188 26.855469 131.859375 26.855469 C 131.855469 26.777344 131.847656 26.703125 131.820312 26.636719 C 131.804688 26.574219 131.753906 26.539062 131.695312 26.550781 C 131.644531 26.5625 131.597656 26.617188 131.617188 26.675781 C 131.742188 27.085938 131.5 27.550781 131.0625 27.644531 C 130.855469 27.6875 130.632812 27.648438 130.460938 27.523438 C 130.289062 27.398438 130.1875 27.199219 130.15625 26.996094 C 130.128906 26.789062 130.203125 26.496094 130.417969 26.425781 C 130.507812 26.554688 130.652344 26.628906 130.8125 26.671875 C 130.941406 26.707031 131.007812 26.503906 130.878906 26.46875 C 130.765625 26.4375 130.652344 26.398438 130.585938 26.296875 C 130.53125 26.199219 130.519531 26.082031 130.546875 25.976562 C 130.613281 25.753906 130.796875 25.570312 131.003906 25.476562 C 131.207031 25.382812 131.460938 25.386719 131.617188 25.566406 C 131.746094 25.714844 131.734375 25.996094 131.527344 26.074219 C 131.4375 26.109375 131.3125 26.085938 131.25 26.007812 C 131.199219 25.929688 131.210938 25.824219 131.28125 25.769531 C 131.390625 25.691406 131.25 25.53125 131.140625 25.613281 C 131.019531 25.703125 130.980469 25.871094 131.019531 26.007812 C 131.070312 26.164062 131.199219 26.261719 131.355469 26.292969 C 131.648438 26.347656 131.882812 26.121094 131.914062 25.851562 C 131.945312 25.863281 131.984375 25.859375 132.019531 25.835938 C 132.300781 25.613281 132.683594 25.835938 132.773438 26.148438 C 132.851562 26.453125 132.6875 26.796875 132.378906 26.898438 Z M 132.605469 25.617188 C 132.378906 25.496094 132.105469 25.507812 131.902344 25.660156 C 131.824219 25.34375 131.480469 25.167969 131.164062 25.207031 C 130.847656 25.246094 130.546875 25.484375 130.402344 25.773438 C 130.328125 25.914062 130.304688 26.074219 130.335938 26.226562 C 130.089844 26.324219 129.957031 26.585938 129.941406 26.84375 C 129.921875 27.117188 130.027344 27.398438 130.222656 27.59375 C 130.621094 28 131.328125 27.953125 131.671875 27.492188 C 131.761719 27.371094 131.820312 27.226562 131.847656 27.078125 C 132.21875 27.230469 132.675781 27.109375 132.882812 26.75 C 133.105469 26.371094 133.011719 25.832031 132.605469 25.617188 Z M 129.058594 26.054688 C 128.851562 25.855469 128.574219 25.753906 128.28125 25.789062 C 127.992188 25.824219 127.71875 26.003906 127.554688 26.242188 C 127.480469 26.351562 127.429688 26.46875 127.394531 26.589844 C 127.382812 26.582031 127.363281 26.574219 127.347656 26.574219 C 127.0625 26.535156 126.777344 26.660156 126.601562 26.882812 C 126.429688 27.09375 126.371094 27.394531 126.433594 27.65625 C 126.488281 27.925781 126.675781 28.191406 126.953125 28.265625 C 127.085938 28.304688 127.222656 28.296875 127.351562 28.25 C 127.367188 28.238281 127.386719 28.230469 127.402344 28.222656 C 127.464844 28.414062 127.601562 28.570312 127.78125 28.660156 C 127.972656 28.746094 128.191406 28.730469 128.386719 28.648438 C 128.789062 28.476562 129.050781 27.984375 128.910156 27.554688 C 128.90625 27.539062 128.898438 27.527344 128.894531 27.511719 C 129.152344 27.425781 129.304688 27.160156 129.34375 26.898438 C 129.386719 26.589844 129.28125 26.265625 129.058594 26.054688 Z M 124.578125 28.214844 C 124.933594 27.5 125.261719 26.773438 125.570312 26.035156 C 125.910156 25.226562 126.226562 24.414062 126.53125 23.59375 C 126.839844 22.765625 127.140625 21.941406 127.441406 21.109375 C 127.753906 20.242188 128.066406 19.378906 128.382812 18.511719 C 128.699219 17.648438 129.007812 16.777344 129.324219 15.914062 L 129.433594 15.613281 C 129.453125 15.601562 129.480469 15.589844 129.5 15.574219 C 129.804688 15.355469 130.203125 15.332031 130.535156 15.496094 C 130.53125 15.5 130.527344 15.507812 130.523438 15.519531 C 129.214844 18.867188 127.789062 22.164062 126.238281 25.40625 C 125.792969 26.328125 125.34375 27.25 124.882812 28.164062 C 124.78125 28.179688 124.675781 28.195312 124.578125 28.214844 Z M 116.242188 11.503906 C 116.28125 11.535156 116.335938 11.515625 116.371094 11.492188 C 116.765625 11.203125 117.25 10.996094 117.742188 11.03125 C 118.136719 11.0625 118.492188 11.246094 118.730469 11.558594 C 118.742188 11.550781 118.765625 11.5625 118.78125 11.566406 C 118.855469 11.589844 118.96875 11.503906 119.039062 11.472656 C 119.125 11.425781 119.210938 11.386719 119.300781 11.34375 C 119.472656 11.261719 119.65625 11.191406 119.84375 11.140625 C 120.207031 11.046875 120.597656 11.066406 120.90625 11.296875 C 120.960938 11.335938 121.011719 11.378906 121.050781 11.433594 C 121.101562 11.492188 121.125 11.566406 121.175781 11.625 C 121.308594 11.789062 121.515625 11.601562 121.644531 11.535156 C 121.96875 11.371094 122.339844 11.300781 122.699219 11.328125 C 123.023438 11.355469 123.386719 11.480469 123.511719 11.804688 C 123.511719 11.804688 123.519531 11.808594 123.519531 11.816406 C 123.519531 11.816406 123.515625 11.820312 123.515625 11.820312 C 123.367188 12.839844 123.226562 13.855469 123.078125 14.867188 C 122.558594 14.707031 121.96875 14.773438 121.488281 15.097656 C 121.199219 14.613281 120.582031 14.53125 120.03125 14.65625 C 119.796875 13.925781 119.027344 13.421875 118.257812 13.503906 C 118.15625 12.597656 117.210938 12.003906 116.355469 12.335938 C 116.394531 12.320312 116.132812 11.925781 116.105469 11.890625 C 115.988281 11.753906 115.84375 11.640625 115.683594 11.554688 C 115.523438 11.464844 115.34375 11.410156 115.164062 11.390625 C 115.15625 11.390625 115.144531 11.390625 115.140625 11.390625 C 115.488281 11.226562 115.925781 11.257812 116.242188 11.503906 Z M 116.242188 11.503906 " fill-opacity="1" fill-rule="nonzero"/></g></g></g><path fill="#ffffff" d="M 93.410156 16.347656 C 93.375 16.835938 93.367188 17.140625 93.402344 17.144531 C 93.4375 17.148438 93.507812 16.851562 93.589844 16.371094 C 93.675781 15.890625 93.769531 15.222656 93.925781 14.503906 C 94.007812 14.144531 94.101562 13.808594 94.199219 13.507812 C 94.308594 13.207031 94.410156 12.941406 94.519531 12.726562 C 94.730469 12.300781 94.910156 12.046875 94.875 12.023438 C 94.847656 12.007812 94.625 12.210938 94.359375 12.640625 C 94.226562 12.851562 94.097656 13.121094 93.976562 13.425781 C 93.863281 13.734375 93.757812 14.078125 93.671875 14.449219 C 93.511719 15.183594 93.449219 15.863281 93.410156 16.347656 " fill-opacity="1" fill-rule="nonzero"/><path fill="#ffffff" d="M 95.191406 20.292969 C 94.253906 19.988281 93.804688 18.835938 94.175781 17.933594 C 94.53125 17.074219 95.484375 16.773438 96.34375 17.019531 C 97.183594 17.253906 98.027344 17.996094 97.644531 18.96875 C 97.269531 19.914062 96.1875 20.503906 95.191406 20.292969 Z M 93.683594 17.964844 C 93.421875 19.09375 93.875 20.308594 95.003906 20.710938 C 95.023438 20.722656 95.042969 20.730469 95.070312 20.734375 C 95.09375 20.742188 95.117188 20.746094 95.136719 20.746094 C 96.332031 20.960938 97.902344 20.214844 98.132812 18.921875 C 98.34375 17.722656 97.492188 16.730469 96.308594 16.539062 C 95.214844 16.367188 93.96875 16.757812 93.683594 17.964844 " fill-opacity="1" fill-rule="nonzero"/><path fill="#ffffff" d="M 94.148438 20.777344 C 94.113281 20.789062 94.183594 21.046875 94.292969 21.457031 C 94.402344 21.867188 94.550781 22.441406 94.773438 23.0625 C 94.890625 23.371094 95.019531 23.664062 95.15625 23.914062 C 95.296875 24.167969 95.445312 24.386719 95.589844 24.550781 C 95.882812 24.886719 96.113281 25.019531 96.136719 25 C 96.164062 24.972656 95.96875 24.777344 95.734375 24.4375 C 95.617188 24.269531 95.492188 24.050781 95.367188 23.804688 C 95.246094 23.558594 95.128906 23.277344 95.015625 22.972656 C 94.796875 22.367188 94.625 21.800781 94.464844 21.398438 C 94.3125 20.996094 94.179688 20.761719 94.148438 20.777344 " fill-opacity="1" fill-rule="nonzero"/><g clip-path="url(#3436366426)"><path fill="#ffffff" d="M 122.941406 31.472656 C 123.074219 31.09375 123.199219 30.707031 123.335938 30.328125 C 123.878906 30.121094 124.386719 29.820312 124.960938 29.722656 C 124.832031 30.136719 124.65625 30.535156 124.484375 30.929688 C 123.984375 30.992188 123.460938 31.261719 122.941406 31.472656 Z M 121.128906 31.527344 C 121.035156 31.464844 120.949219 31.398438 120.863281 31.328125 C 121.035156 30.933594 121.433594 30.6875 121.648438 30.320312 C 121.917969 30.46875 122.21875 30.554688 122.539062 30.527344 C 122.71875 30.511719 122.890625 30.476562 123.058594 30.421875 C 122.925781 30.808594 122.800781 31.199219 122.664062 31.582031 C 122.132812 31.773438 121.613281 31.851562 121.128906 31.527344 Z M 119.8125 30.121094 C 120.089844 29.890625 120.320312 29.613281 120.554688 29.339844 C 120.570312 29.359375 120.589844 29.382812 120.605469 29.40625 C 120.839844 29.6875 121.125 29.984375 121.453125 30.207031 C 121.265625 30.5625 120.886719 30.8125 120.6875 31.171875 C 120.359375 30.867188 120.074219 30.5 119.8125 30.121094 Z M 119.167969 29.175781 C 119.082031 29.046875 118.992188 28.917969 118.902344 28.785156 C 119.148438 28.542969 119.351562 28.261719 119.554688 27.980469 C 119.828125 28.378906 120.105469 28.777344 120.40625 29.15625 C 120.179688 29.429688 119.949219 29.699219 119.679688 29.933594 C 119.507812 29.675781 119.335938 29.417969 119.167969 29.175781 Z M 118.144531 27.738281 C 118.269531 27.390625 118.433594 27.03125 118.710938 26.789062 C 118.953125 27.113281 119.183594 27.445312 119.414062 27.78125 C 119.214844 28.0625 119.011719 28.34375 118.765625 28.589844 C 118.574219 28.3125 118.367188 28.019531 118.144531 27.738281 Z M 117.171875 26.679688 C 117.332031 26.3125 117.53125 25.964844 117.710938 25.605469 C 118.023438 25.921875 118.304688 26.253906 118.574219 26.605469 C 118.292969 26.84375 118.113281 27.183594 117.980469 27.527344 C 117.730469 27.222656 117.460938 26.933594 117.171875 26.679688 Z M 115.753906 25.882812 C 115.925781 25.476562 116.09375 25.074219 116.296875 24.683594 C 116.753906 24.828125 117.167969 25.09375 117.535156 25.4375 C 117.359375 25.804688 117.15625 26.15625 116.988281 26.527344 C 116.613281 26.230469 116.207031 26 115.753906 25.882812 Z M 114.511719 25.832031 C 114.589844 25.4375 114.675781 25.046875 114.839844 24.679688 C 114.921875 24.652344 115.011719 24.625 115.109375 24.609375 C 115.441406 24.542969 115.761719 24.554688 116.070312 24.621094 C 115.871094 25.015625 115.699219 25.425781 115.53125 25.832031 C 115.527344 25.832031 115.523438 25.832031 115.519531 25.832031 C 115.1875 25.777344 114.84375 25.777344 114.511719 25.832031 Z M 113.371094 26.265625 C 113.4375 26.058594 113.492188 25.847656 113.507812 25.628906 C 113.820312 25.304688 114.136719 24.996094 114.546875 24.796875 C 114.417969 25.144531 114.339844 25.511719 114.269531 25.878906 C 113.953125 25.957031 113.648438 26.085938 113.371094 26.265625 Z M 111.726562 27.75 C 111.773438 27.433594 111.886719 27.125 112 26.820312 C 112.226562 26.703125 112.441406 26.570312 112.644531 26.421875 C 112.863281 26.269531 113.050781 26.09375 113.234375 25.910156 C 113.1875 26.109375 113.117188 26.304688 113.046875 26.5 C 112.699219 26.789062 112.414062 27.121094 112.089844 27.445312 C 111.972656 27.554688 111.851562 27.660156 111.726562 27.75 Z M 110.417969 28.421875 C 110.355469 28.445312 110.296875 28.464844 110.238281 28.488281 C 110.378906 28.117188 110.496094 27.738281 110.664062 27.375 C 111.015625 27.261719 111.367188 27.128906 111.703125 26.96875 C 111.59375 27.28125 111.496094 27.59375 111.480469 27.921875 C 111.148438 28.125 110.792969 28.285156 110.417969 28.421875 Z M 109.066406 21.054688 C 109.097656 20.496094 109.085938 19.933594 109.039062 19.378906 C 109.335938 19.292969 109.625 19.179688 109.925781 19.128906 C 109.949219 19.703125 109.929688 20.285156 109.867188 20.859375 C 109.601562 20.9375 109.332031 20.988281 109.066406 21.054688 Z M 108.796875 23.03125 C 108.925781 22.460938 109.011719 21.882812 109.050781 21.296875 C 109.3125 21.226562 109.578125 21.175781 109.835938 21.105469 C 109.761719 21.703125 109.640625 22.28125 109.472656 22.824219 C 109.464844 22.867188 109.449219 22.902344 109.433594 22.941406 C 109.21875 22.9375 109.003906 22.96875 108.796875 23.03125 Z M 109 18.945312 C 108.941406 18.453125 108.859375 17.957031 108.757812 17.460938 C 109.058594 17.355469 109.378906 17.324219 109.691406 17.277344 C 109.808594 17.796875 109.882812 18.34375 109.914062 18.898438 C 109.609375 18.953125 109.316406 19.058594 109.019531 19.144531 C 109.011719 19.078125 109.007812 19.011719 109 18.945312 Z M 108.4375 28.976562 C 108.574219 28.546875 108.769531 28.136719 108.902344 27.707031 C 109.253906 27.695312 109.601562 27.660156 109.949219 27.574219 C 110.089844 27.539062 110.234375 27.5 110.378906 27.460938 C 110.222656 27.832031 110.105469 28.214844 109.953125 28.585938 C 109.464844 28.75 108.953125 28.890625 108.4375 28.976562 Z M 108.710938 17.234375 C 108.597656 16.726562 108.460938 16.21875 108.296875 15.714844 C 108.578125 15.644531 108.859375 15.574219 109.136719 15.496094 C 109.292969 15.898438 109.429688 16.304688 109.550781 16.707031 C 109.582031 16.820312 109.613281 16.9375 109.640625 17.050781 C 109.328125 17.097656 109.011719 17.128906 108.710938 17.234375 Z M 108.222656 15.5 C 108.089844 15.105469 107.9375 14.714844 107.773438 14.335938 C 108.023438 14.261719 108.28125 14.199219 108.527344 14.109375 C 108.71875 14.492188 108.894531 14.882812 109.054688 15.28125 C 108.78125 15.359375 108.5 15.429688 108.222656 15.5 Z M 107.882812 25.550781 C 107.851562 25.585938 107.816406 25.613281 107.78125 25.644531 C 108.207031 24.914062 108.523438 24.117188 108.734375 23.289062 C 108.9375 23.222656 109.144531 23.179688 109.359375 23.171875 C 109.046875 24.066406 108.582031 24.890625 107.882812 25.550781 Z M 106.894531 12.671875 C 107.15625 12.636719 107.507812 12.628906 107.683594 12.625 C 107.949219 13.035156 108.195312 13.464844 108.421875 13.902344 C 108.175781 13.988281 107.925781 14.050781 107.675781 14.121094 C 107.445312 13.621094 107.183594 13.136719 106.894531 12.671875 Z M 106.683594 29.042969 C 106.652344 29.039062 106.625 29.035156 106.597656 29.03125 C 106.730469 28.5625 106.882812 28.105469 107.121094 27.679688 C 107.636719 27.6875 108.148438 27.71875 108.660156 27.714844 C 108.515625 28.15625 108.316406 28.574219 108.183594 29.019531 C 107.683594 29.089844 107.175781 29.105469 106.683594 29.042969 Z M 105.941406 11.371094 C 106.183594 11.3125 106.429688 11.28125 106.675781 11.230469 C 106.980469 11.601562 107.265625 11.988281 107.535156 12.394531 C 107.242188 12.398438 107.015625 12.414062 106.761719 12.460938 C 106.507812 12.082031 106.238281 11.714844 105.941406 11.371094 Z M 106.371094 28.996094 C 106.078125 28.945312 105.789062 28.878906 105.5 28.820312 C 105.722656 28.421875 105.976562 28.050781 106.28125 27.714844 C 106.339844 27.707031 106.402344 27.703125 106.460938 27.699219 C 106.59375 27.699219 106.726562 27.703125 106.859375 27.683594 C 106.640625 28.097656 106.496094 28.542969 106.371094 28.996094 Z M 104.773438 10.226562 C 104.914062 10.179688 105.054688 10.136719 105.203125 10.105469 C 105.691406 10.363281 106.167969 10.667969 106.503906 11.03125 C 106.261719 11.074219 106.015625 11.117188 105.773438 11.179688 C 105.464844 10.839844 105.128906 10.519531 104.773438 10.226562 Z M 104.5 28.675781 C 104.4375 28.671875 104.375 28.667969 104.3125 28.667969 C 104.839844 28.488281 105.347656 28.230469 105.816406 27.886719 C 105.828125 27.878906 105.84375 27.871094 105.859375 27.859375 C 105.632812 28.144531 105.4375 28.453125 105.261719 28.773438 C 105.007812 28.726562 104.753906 28.6875 104.5 28.675781 Z M 103.488281 9.355469 C 103.484375 9.351562 103.480469 9.351562 103.476562 9.347656 C 103.484375 9.34375 103.488281 9.335938 103.492188 9.332031 C 103.730469 9.410156 103.96875 9.503906 104.191406 9.609375 C 104.410156 9.710938 104.652344 9.824219 104.894531 9.945312 C 104.796875 9.972656 104.699219 10.003906 104.601562 10.039062 C 104.585938 10.042969 104.574219 10.054688 104.566406 10.0625 C 104.226562 9.800781 103.871094 9.5625 103.488281 9.355469 Z M 100.714844 8.335938 C 100.816406 8.324219 100.917969 8.3125 101.019531 8.3125 C 101.722656 8.296875 102.433594 8.382812 103.113281 8.570312 C 104.375 8.914062 105.613281 9.480469 106.609375 10.347656 C 108.527344 12.011719 109.773438 14.464844 110.285156 16.933594 C 110.84375 19.609375 110.792969 22.535156 109.261719 24.902344 C 108.902344 25.453125 108.492188 25.992188 107.988281 26.417969 C 107.636719 26.714844 107.101562 27.257812 106.597656 27.203125 C 106.890625 26.910156 107.148438 26.59375 107.386719 26.261719 C 107.875 25.839844 108.398438 25.4375 108.75 24.902344 C 109.300781 24.074219 109.679688 23.164062 109.863281 22.183594 C 110.054688 21.140625 110.160156 20.074219 110.125 19.019531 C 110.132812 18.988281 110.132812 18.957031 110.121094 18.929688 C 110.09375 18.332031 110.019531 17.734375 109.890625 17.148438 C 109.890625 17.136719 109.886719 17.125 109.882812 17.113281 C 109.808594 16.785156 109.71875 16.460938 109.605469 16.140625 C 109.261719 15.167969 108.855469 14.214844 108.34375 13.316406 C 107.863281 12.480469 107.328125 11.433594 106.585938 10.796875 C 105.316406 9.707031 103.789062 9.160156 102.207031 8.765625 C 101.722656 8.582031 101.21875 8.433594 100.714844 8.335938 Z M 99.464844 28.007812 C 92.980469 25.421875 91.414062 16.332031 94.847656 10.804688 C 95.796875 9.382812 97.257812 8.707031 98.832031 8.617188 C 98.84375 8.621094 98.855469 8.621094 98.867188 8.621094 C 98.949219 8.621094 99.03125 8.617188 99.113281 8.609375 C 99.785156 8.601562 100.472656 8.699219 101.148438 8.886719 C 103.523438 9.554688 105.398438 11.066406 106.648438 13.1875 C 108.582031 16.476562 109.449219 21.046875 107.785156 24.628906 C 107.316406 25.636719 106.65625 26.617188 105.789062 27.335938 C 105.773438 27.347656 105.757812 27.359375 105.746094 27.371094 C 105.699219 27.410156 105.648438 27.449219 105.59375 27.488281 C 105.117188 27.839844 104.691406 28.066406 104.101562 28.21875 C 104.042969 28.230469 104.003906 28.261719 103.976562 28.296875 C 102.511719 28.71875 100.871094 28.566406 99.464844 28.007812 Z M 94.449219 10.574219 C 91.109375 15.957031 92.296875 24.46875 98.035156 27.816406 C 99.324219 28.566406 100.871094 29.015625 102.382812 28.988281 C 102.398438 29 102.417969 29.003906 102.441406 29.007812 C 103.28125 29.113281 104.152344 29.035156 104.988281 29.191406 C 105.628906 29.3125 106.296875 29.527344 106.957031 29.519531 C 108.113281 29.507812 109.234375 29.34375 110.320312 28.945312 C 111.375 28.554688 112.074219 28.078125 112.855469 27.285156 C 113.664062 26.46875 114.855469 25.894531 115.972656 26.464844 C 117.675781 27.328125 118.605469 29.25 119.710938 30.71875 C 120.222656 31.398438 120.785156 32.050781 121.664062 32.191406 C 122.730469 32.367188 123.59375 31.410156 124.632812 31.375 C 124.722656 31.371094 124.785156 31.328125 124.820312 31.269531 C 124.835938 31.253906 124.847656 31.234375 124.859375 31.210938 C 125.101562 30.664062 125.355469 30.109375 125.492188 29.523438 C 125.519531 29.410156 125.464844 29.320312 125.382812 29.273438 C 125.347656 29.25 125.300781 29.234375 125.246094 29.234375 C 124.828125 29.25 124.4375 29.335938 124.054688 29.515625 C 123.511719 29.773438 122.839844 30.21875 122.207031 30.039062 C 121.226562 29.753906 120.636719 28.71875 120.082031 27.925781 C 119.230469 26.707031 118.34375 25.160156 116.964844 24.460938 C 115.398438 23.664062 113.957031 24.378906 112.855469 25.589844 C 112.035156 26.492188 110.546875 27.121094 109.328125 27.207031 C 108.785156 27.242188 108.242188 27.230469 107.703125 27.222656 C 108.542969 26.597656 109.269531 25.835938 109.789062 24.917969 C 111.1875 22.433594 111.351562 19.558594 110.730469 16.8125 C 110.136719 14.1875 108.851562 11.585938 106.738281 9.863281 C 105.738281 9.046875 104.488281 8.433594 103.234375 8.125 C 102.539062 7.957031 101.738281 7.78125 101.019531 7.855469 C 100.296875 7.929688 99.597656 8.15625 98.867188 8.164062 C 98.828125 8.164062 98.792969 8.171875 98.765625 8.1875 C 97.085938 8.28125 95.511719 8.988281 94.449219 10.574219 " fill-opacity="1" fill-rule="nonzero"/></g><path fill="#ffffff" d="M 97.0625 15.699219 C 96.265625 15.128906 95.660156 14.066406 95.808594 13.066406 C 96.03125 12.0625 96.832031 11.328125 97.867188 11.871094 C 98.734375 12.320312 99.261719 13.210938 99.296875 14.191406 C 99.324219 14.859375 99.164062 15.585938 98.476562 15.875 C 97.996094 16.078125 97.484375 16.003906 97.0625 15.699219 Z M 95.359375 13 C 95.195312 14.328125 96.019531 15.792969 97.253906 16.316406 C 98.5625 16.878906 99.8125 15.703125 99.765625 14.386719 C 99.71875 13.121094 99.097656 11.742188 97.789062 11.34375 C 96.554688 10.96875 95.664062 11.71875 95.378906 12.890625 C 95.375 12.90625 95.371094 12.925781 95.367188 12.945312 C 95.363281 12.964844 95.359375 12.984375 95.359375 13 " fill-opacity="1" fill-rule="nonzero"/><path fill="#ffffff" d="M 96.855469 24 C 96.652344 23.148438 96.976562 22.382812 97.871094 22.140625 C 98.515625 21.964844 99.371094 21.988281 99.898438 22.460938 C 100.6875 23.160156 100.46875 24.464844 99.882812 25.238281 C 98.746094 26.738281 97.289062 25.28125 96.855469 24 Z M 97.746094 21.699219 C 96.640625 22.0625 96.164062 22.949219 96.402344 24.0625 C 96.402344 24.082031 96.40625 24.101562 96.414062 24.121094 C 96.417969 24.140625 96.425781 24.160156 96.429688 24.175781 C 96.832031 25.285156 98.242188 27.105469 99.585938 26.152344 C 100.652344 25.394531 101.335938 23.601562 100.507812 22.4375 C 99.929688 21.625 98.65625 21.398438 97.746094 21.699219 " fill-opacity="1" fill-rule="nonzero"/><path fill="#ffffff" d="M 97.125 10.007812 C 96.992188 10.109375 96.925781 10.175781 96.9375 10.1875 C 96.949219 10.203125 97.035156 10.167969 97.179688 10.089844 C 97.320312 10.011719 97.53125 9.910156 97.792969 9.792969 C 97.929688 9.742188 98.070312 9.679688 98.234375 9.632812 C 98.316406 9.609375 98.398438 9.582031 98.484375 9.558594 C 98.570312 9.539062 98.664062 9.519531 98.753906 9.496094 C 99.125 9.425781 99.539062 9.386719 99.976562 9.40625 C 100.851562 9.449219 101.617188 9.703125 102.152344 9.914062 C 102.6875 10.128906 103.015625 10.300781 103.035156 10.265625 C 103.046875 10.238281 102.761719 10.015625 102.226562 9.75 C 101.699219 9.488281 100.90625 9.195312 99.988281 9.144531 C 99.527344 9.125 99.089844 9.175781 98.703125 9.265625 C 98.605469 9.292969 98.511719 9.316406 98.421875 9.339844 C 98.332031 9.367188 98.246094 9.402344 98.164062 9.433594 C 97.996094 9.488281 97.855469 9.566406 97.71875 9.628906 C 97.453125 9.769531 97.25 9.898438 97.125 10.007812 " fill-opacity="1" fill-rule="nonzero"/><path fill="#ffffff" d="M 99.277344 18.941406 C 99.273438 18.847656 99.273438 18.589844 99.40625 18.570312 C 99.554688 18.546875 99.707031 18.875 99.742188 18.976562 C 99.773438 19.058594 99.808594 19.164062 99.773438 19.253906 C 99.742188 19.332031 99.636719 19.324219 99.5625 19.316406 C 99.378906 19.28125 99.285156 19.121094 99.277344 18.941406 Z M 99.394531 18.34375 C 99.128906 18.351562 99.035156 18.699219 99.046875 18.914062 C 99.0625 19.199219 99.203125 19.488281 99.507812 19.539062 C 99.511719 19.539062 99.515625 19.539062 99.523438 19.539062 C 99.527344 19.539062 99.53125 19.542969 99.535156 19.542969 C 99.917969 19.585938 100.09375 19.292969 99.972656 18.945312 C 99.890625 18.707031 99.695312 18.332031 99.394531 18.34375 " fill-opacity="1" fill-rule="nonzero"/><path fill="#ffffff" d="M 101.179688 21.203125 C 98.886719 21.867188 97.636719 17.863281 99.558594 16.765625 C 101.972656 15.382812 103.304688 20.214844 101.179688 21.203125 Z M 99.5625 16.394531 C 97.273438 17.703125 98.464844 22.335938 101.277344 21.511719 C 101.285156 21.507812 101.292969 21.503906 101.300781 21.5 C 101.308594 21.496094 101.308594 21.496094 101.316406 21.496094 C 102.5 20.972656 102.734375 19.308594 102.449219 18.175781 C 102.15625 17.023438 100.882812 15.636719 99.5625 16.394531 " fill-opacity="1" fill-rule="nonzero"/><path fill="#ffffff" d="M 100.675781 17.683594 C 100.359375 18.003906 99.894531 17.492188 100.09375 17.15625 C 100.339844 16.820312 100.957031 17.386719 100.675781 17.683594 Z M 99.894531 17.039062 C 99.726562 17.324219 99.839844 17.6875 100.089844 17.886719 C 100.324219 18.070312 100.699219 18.054688 100.875 17.792969 C 101.25 17.234375 100.371094 16.496094 99.929688 17.003906 C 99.917969 17.011719 99.90625 17.023438 99.894531 17.039062 " fill-opacity="1" fill-rule="nonzero"/><path fill="#ffffff" d="M 100.667969 20.785156 C 100.25 20.792969 100.167969 19.90625 100.511719 19.949219 C 100.707031 19.972656 100.839844 20.144531 100.871094 20.328125 C 100.898438 20.511719 100.875 20.738281 100.667969 20.785156 Z M 100.453125 19.71875 C 99.792969 19.75 100.027344 21.0625 100.683594 21.015625 C 100.6875 21.015625 100.695312 21.011719 100.699219 21.007812 C 100.703125 21.007812 100.707031 21.011719 100.714844 21.011719 C 101.074219 20.949219 101.15625 20.542969 101.085938 20.234375 C 101.015625 19.949219 100.761719 19.703125 100.453125 19.71875 " fill-opacity="1" fill-rule="nonzero"/><path fill="#ffffff" d="M 100.875 27.253906 C 100.871094 27.273438 100.960938 27.308594 101.128906 27.367188 C 101.300781 27.433594 101.554688 27.484375 101.878906 27.527344 C 102.035156 27.539062 102.214844 27.5625 102.402344 27.566406 C 102.496094 27.570312 102.589844 27.574219 102.691406 27.578125 C 102.792969 27.578125 102.898438 27.574219 103.003906 27.570312 C 103.433594 27.550781 103.910156 27.476562 104.375 27.292969 C 104.84375 27.109375 105.242188 26.828125 105.558594 26.539062 C 105.875 26.246094 106.113281 25.941406 106.300781 25.679688 C 106.664062 25.144531 106.824219 24.785156 106.796875 24.769531 C 106.765625 24.75 106.546875 25.078125 106.15625 25.570312 C 105.953125 25.8125 105.710938 26.09375 105.402344 26.359375 C 105.089844 26.628906 104.71875 26.878906 104.28125 27.050781 C 103.40625 27.398438 102.511719 27.359375 101.890625 27.34375 C 101.582031 27.328125 101.328125 27.300781 101.152344 27.269531 C 100.980469 27.246094 100.878906 27.238281 100.875 27.253906 " fill-opacity="1" fill-rule="nonzero"/><path fill="#ffffff" d="M 101.59375 19.207031 C 101.371094 19.316406 101.21875 19.042969 101.21875 18.851562 C 101.21875 18.679688 101.285156 18.398438 101.492188 18.359375 C 101.730469 18.316406 101.839844 18.5625 101.847656 18.757812 C 101.839844 18.921875 101.746094 19.132812 101.59375 19.207031 Z M 101.515625 18.125 C 101.175781 18.132812 100.96875 18.554688 100.992188 18.851562 C 101.011719 19.136719 101.203125 19.527344 101.550781 19.460938 C 101.867188 19.402344 102.0625 19.0625 102.078125 18.757812 C 102.0625 18.433594 101.871094 18.117188 101.515625 18.125 " fill-opacity="1" fill-rule="nonzero"/><path fill="#ffffff" d="M 102.039062 24.6875 C 101.757812 23.902344 101.839844 22.714844 102.492188 22.125 C 103.597656 21.117188 105.308594 22.554688 105.367188 23.792969 C 105.40625 24.675781 105.023438 25.6875 104.058594 25.886719 C 103.121094 26.085938 102.433594 25.480469 102.039062 24.6875 Z M 102.441406 21.574219 C 101.480469 22.285156 101.191406 23.746094 101.609375 24.839844 C 101.613281 24.84375 101.617188 24.851562 101.621094 24.859375 C 101.625 24.871094 101.625 24.882812 101.628906 24.890625 C 102.15625 25.976562 103.226562 26.695312 104.433594 26.246094 C 105.53125 25.84375 106.097656 24.429688 105.753906 23.335938 C 105.386719 22.167969 103.726562 20.625 102.441406 21.574219 " fill-opacity="1" fill-rule="nonzero"/><path fill="#ffffff" d="M 103.210938 16.21875 C 101.179688 16.207031 100.320312 13.023438 102.105469 12.003906 C 103.335938 11.300781 105.101562 12.15625 105.128906 13.632812 C 105.152344 14.867188 104.5625 16.101562 103.210938 16.21875 Z M 102.289062 11.40625 C 99.636719 12.246094 100.53125 16.585938 103.144531 16.675781 C 103.164062 16.675781 103.183594 16.679688 103.210938 16.675781 C 103.234375 16.675781 103.253906 16.675781 103.273438 16.667969 C 104.890625 16.488281 105.695312 14.996094 105.574219 13.457031 C 105.449219 11.894531 103.710938 10.953125 102.289062 11.40625 " fill-opacity="1" fill-rule="nonzero"/><path fill="#ffffff" d="M 103.371094 19.671875 C 102.816406 17.980469 105.140625 16.441406 106.546875 17.527344 C 107.609375 18.339844 107.796875 20.917969 106.003906 20.878906 C 104.996094 20.859375 103.84375 20.675781 103.371094 19.671875 Z M 107.246094 17.582031 C 105.714844 15.640625 102.105469 17.394531 102.933594 19.816406 C 102.9375 19.832031 102.945312 19.84375 102.953125 19.855469 C 102.953125 19.863281 102.957031 19.867188 102.957031 19.871094 C 103.242188 20.507812 103.792969 20.9375 104.464844 21.125 C 105.066406 21.296875 106.027344 21.519531 106.632812 21.265625 C 108.050781 20.671875 108.125 18.691406 107.246094 17.582031 " fill-opacity="1" fill-rule="nonzero"/><path fill="#ffffff" d="M 106.167969 13.589844 C 106.136719 13.617188 106.261719 13.785156 106.414062 14.074219 C 106.492188 14.214844 106.574219 14.394531 106.652344 14.59375 C 106.738281 14.796875 106.800781 15.019531 106.886719 15.269531 C 107.066406 15.761719 107.261719 16.167969 107.367188 16.480469 C 107.476562 16.78125 107.503906 16.996094 107.542969 16.992188 C 107.574219 16.988281 107.617188 16.785156 107.542969 16.433594 C 107.480469 16.09375 107.300781 15.652344 107.128906 15.183594 C 107.046875 14.949219 106.972656 14.707031 106.871094 14.5 C 106.773438 14.296875 106.675781 14.113281 106.570312 13.976562 C 106.367188 13.695312 106.1875 13.570312 106.167969 13.589844 " fill-opacity="1" fill-rule="nonzero"/><path fill="#ffffff" d="M 107.578125 23.410156 C 107.511719 23.648438 107.511719 23.808594 107.542969 23.816406 C 107.578125 23.820312 107.644531 23.6875 107.75 23.476562 C 107.804688 23.367188 107.867188 23.234375 107.925781 23.078125 C 107.9375 23.039062 107.953125 23 107.964844 22.957031 C 107.980469 22.914062 107.988281 22.867188 108 22.820312 C 108.015625 22.773438 108.015625 22.734375 108.027344 22.6875 C 108.027344 22.660156 108.03125 22.648438 108.035156 22.613281 L 108.035156 22.542969 C 108.066406 21.785156 107.972656 21.199219 107.90625 21.195312 C 107.828125 21.195312 107.804688 21.804688 107.78125 22.523438 L 107.777344 22.59375 C 107.777344 22.601562 107.773438 22.632812 107.769531 22.652344 C 107.765625 22.695312 107.761719 22.746094 107.75 22.78125 C 107.746094 22.816406 107.738281 22.855469 107.730469 22.894531 C 107.71875 22.933594 107.707031 22.96875 107.699219 23.007812 C 107.65625 23.15625 107.613281 23.289062 107.578125 23.410156 " fill-opacity="1" fill-rule="nonzero"/></svg>